# xmcd CD database file
#
# Track frame offsets:
#	182
#	11007
#	23532
#	39882
#	52082
#	66132
#	77757
#	97625
#	109932
#	123882
#	138132
#	158807
#	171132
#	183157
#	197125
#	208707
#	222057
#	239107
#	254157
#	270507
#
# Disc length: 3652 seconds
#
# Revision: 0
# Processed by: cddbd v1.4PL0 Copyright (c) Steve Scherf et al.
# Submitted via: CDex 1.50Beta5
#
DISCID=0f0e4214
DTITLE=Sampers - Church Street Station Vol. 5
DYEAR=1900
DGENRE=Country
TTITLE0=Danny/Trailer-It's country time
TTITLE1=Micky Gilley/Don't the girls all get prettier at closing time
TTITLE2=Dottie West/Leavin's for unbelevers
TTITLE3=Johnny Rodriguez/Leave me with all your heart
TTITLE4=Sweatharts of the rodeo/Chains of gold
TTITLE5=George Jones/No show Jones
TTITLE6=Tymmy Wynette/Gospel Medley
TTITLE7=Boxcar Wille/Hobo Heaven
TTITLE8=Barbara Farchild/Y'alll comm
TTITLE9=Freddy Fender/Jambalaya
TTITLE10=Tanya Tucker/Texas when I die
TTITLE11=Faron Young/It's four in the morning
TTITLE12=Johnny Tilloston/Tell me babay
TTITLE13=Dense price/Long hard fall
TTITLE14=Curtis Young/Who do you know in California
TTITLE15=Eddy Rayen/I don't like planes
TTITLE16=Tex Williams/Deck of cards
TTITLE17=MelMcDaniel/I wish I was in Nashville
TTITLE18=Nitty Gritty Dirth Band/Dance ´littel Jean
TTITLE19=Danny Days+Nasville Brass/Trailer
EXTD=
EXTT0=
EXTT1=
EXTT2=
EXTT3=
EXTT4=
EXTT5=
EXTT6=
EXTT7=
EXTT8=
EXTT9=
EXTT10=
EXTT11=
EXTT12=
EXTT13=
EXTT14=
EXTT15=
EXTT16=
EXTT17=
EXTT18=
EXTT19=
PLAYORDER=
